<svg
  width="40"
  height="25"
  xmlns="http://www.w3.org/2000/svg">
  <path
    fill="#f0f4f9"
    d="M39.729 13.352a1.494 1.494 0 00-.041-1.771C33.638 3.897 27.107 0 20.265 0 8.663 0 .605 11.167.271 11.64a1.494 1.494 0 00.04 1.77C6.353 21.104 12.884 25 19.726 25c11.602 0 19.66-11.167 20.003-11.648zm-20.003 8.755c-5.699 0-11.25-3.239-16.524-9.615 2.065-2.522 8.63-9.599 17.063-9.599 5.699 0 11.25 3.239 16.525 9.615-2.066 2.522-8.63 9.599-17.064 9.599z" />
  <path
    fill="#f0f4f9"
    d="M19.996 5.154c-3.92 0-7.112 3.297-7.112 7.346 0 4.049 3.193 7.346 7.112 7.346 3.918 0 7.11-3.297 7.11-7.346 0-4.049-3.192-7.346-7.11-7.346zm0 11.8c-2.376 0-4.311-2-4.311-4.454 0-2.454 1.935-4.453 4.31-4.453 2.376 0 4.311 1.999 4.311 4.453s-1.935 4.453-4.31 4.453z" />
</svg>